<?xml version="1.0" standalone="no"?>
<!DOCTYPE svg PUBLIC "-//W3C//DTD SVG 20010904//EN"
 "http://www.w3.org/TR/2001/REC-SVG-20010904/DTD/svg10.dtd">
<svg version="1.0" xmlns="http://www.w3.org/2000/svg"
 width="500.000000pt" height="500.000000pt" viewBox="0 0 500.000000 500.000000"
 preserveAspectRatio="xMidYMid meet">
<metadata>
Created by potrace 1.11, written by Peter Selinger 2001-2013
</metadata>
<g transform="translate(0.000000,500.000000) scale(0.100000,-0.100000)"
fill="#000000" stroke="none">
<path d="M0 2500 l0 -2500 2500 0 2500 0 0 2500 0 2500 -2500 0 -2500 0 0
-2500z m2636 1275 c69 -93 154 -210 187 -260 33 -49 61 -91 62 -93 1 -1 42 27
91 63 166 124 293 188 682 342 9 4 12 -71 12 -357 l0 -362 43 6 c177 26 736
49 725 30 -3 -5 -43 -121 -88 -259 -160 -486 -242 -663 -395 -860 -114 -146
-238 -251 -414 -349 -287 -161 -525 -208 -1041 -208 -532 0 -785 54 -1077 229
-189 113 -314 230 -432 402 -121 177 -200 359 -341 786 -45 138 -85 254 -88
259 -11 19 550 -5 726 -30 l42 -6 0 362 c0 286 3 361 13 357 388 -154 515
-218 681 -342 49 -36 90 -64 91 -63 1 2 26 39 55 83 82 124 323 446 332 443 4
-2 64 -79 134 -173z m-1781 -2125 c188 -29 328 -72 565 -173 228 -96 307 -124
444 -157 186 -46 357 -63 636 -63 450 0 664 43 1052 209 343 147 564 199 863
205 l100 2 3 -100 3 -100 -47 -7 c-26 -3 -74 -6 -108 -6 -71 0 -235 -22 -333
-45 -106 -24 -182 -51 -393 -140 -359 -151 -509 -189 -856 -220 -213 -19 -355
-19 -568 0 -347 31 -497 69 -856 220 -339 143 -425 163 -802 191 l-78 6 0 97
c0 54 2 100 4 102 7 7 298 -9 371 -21z"/>
<path d="M2403 3473 c-49 -71 -117 -173 -151 -228 -58 -96 -162 -304 -177
-354 -7 -21 -5 -23 16 -17 145 39 230 50 409 50 179 0 264 -11 409 -50 21 -6
23 -4 16 17 -15 53 -126 271 -190 374 -77 125 -224 335 -235 335 -4 0 -47 -57
-97 -127z"/>
<path d="M1540 3290 l0 -219 43 -11 c23 -6 98 -29 165 -51 68 -22 125 -39 127
-37 1 2 30 62 64 133 l62 130 -38 33 c-99 84 -364 242 -406 242 -15 0 -17 -21
-17 -220z"/>
<path d="M3320 3454 c-107 -57 -215 -129 -283 -186 l-38 -33 62 -130 c34 -71
63 -131 64 -133 2 -2 59 15 127 37 67 22 142 45 166 51 l42 11 0 219 c0 203
-1 220 -17 220 -10 0 -65 -25 -123 -56z"/>
<path d="M860 2926 c0 -17 69 -219 117 -340 65 -165 201 -416 225 -416 4 0 16
17 27 38 85 166 333 413 521 519 28 15 50 31 50 35 0 11 -154 65 -261 92 -143
35 -265 54 -459 71 -205 19 -220 19 -220 1z"/>
<path d="M3910 2925 c-278 -25 -452 -61 -642 -132 -38 -13 -68 -28 -68 -31 0
-4 22 -20 50 -35 188 -106 436 -353 521 -519 11 -21 23 -38 27 -38 24 0 160
251 225 416 48 121 117 323 117 340 0 17 -39 17 -230 -1z"/>
</g>
</svg>
